<svg width="25" height="25" viewBox="0 0 25 25" fill="none" xmlns="http://www.w3.org/2000/svg">
<g clip-path="url(#clip0_285_299)">
<path d="M8.12506 17.1875C8.0317 17.1875 7.93834 17.2046 7.84928 17.2407C7.34303 17.4463 6.81061 17.5781 6.25006 17.5781C5.68952 17.5781 5.15709 17.4463 4.65045 17.2407C4.56139 17.2046 4.46842 17.1875 4.37506 17.1875C1.95084 17.1875 -0.0128275 19.6523 6.31046e-05 22.6865C0.00553185 23.9688 0.848891 25 1.87506 25H10.6251C11.6512 25 12.4946 23.9688 12.5001 22.6865C12.513 19.6523 10.5493 17.1875 8.12506 17.1875ZM6.25006 15.625C8.32116 15.625 10.0001 13.5264 10.0001 10.9375C10.0001 8.34863 8.32116 6.25 6.25006 6.25C4.17897 6.25 2.50006 8.34863 2.50006 10.9375C2.50006 13.5264 4.17897 15.625 6.25006 15.625ZM23.1251 0H8.12506C7.09108 0 6.25006 1.08643 6.25006 2.42139V4.6875C7.16491 4.6875 8.01178 5.01855 8.75006 5.55664V3.125H22.5001V17.1875H20.0001V14.0625H15.0001V17.1875H12.0219C12.768 18.0024 13.3157 19.0786 13.5723 20.3125H23.1251C24.159 20.3125 25.0001 19.2261 25.0001 17.8911V2.42139C25.0001 1.08643 24.159 0 23.1251 0Z" fill="white"/>
</g>
<defs>
<clipPath id="clip0_285_299">
<rect width="25" height="25" fill="white"/>
</clipPath>
</defs>
</svg>
